<mxfile host="app.diagrams.net" agent="Mozilla/5.0 (Windows NT 10.0; Win64; x64) AppleWebKit/537.36 (KHTML, like Gecko) Chrome/139.0.0.0 Safari/537.36" version="28.2.0">
  <diagram name="Page-1" id="gFdiR36BKOuymoDbsfdL">
    <mxGraphModel dx="1426" dy="743" grid="1" gridSize="10" guides="1" tooltips="1" connect="1" arrows="1" fold="1" page="1" pageScale="1" pageWidth="850" pageHeight="1100" math="0" shadow="0">
      <root>
        <mxCell id="0" />
        <mxCell id="1" parent="0" />
        <mxCell id="DGAj23DFqnA725ZvXxEH-4" value="" style="edgeStyle=orthogonalEdgeStyle;rounded=0;orthogonalLoop=1;jettySize=auto;html=1;" edge="1" parent="1" source="DGAj23DFqnA725ZvXxEH-1" target="DGAj23DFqnA725ZvXxEH-2">
          <mxGeometry relative="1" as="geometry" />
        </mxCell>
        <mxCell id="DGAj23DFqnA725ZvXxEH-1" value="Start" style="rounded=1;whiteSpace=wrap;html=1;fillColor=#d5e8d4;strokeColor=#82b366;" vertex="1" parent="1">
          <mxGeometry x="140" y="50" width="120" height="40" as="geometry" />
        </mxCell>
        <mxCell id="DGAj23DFqnA725ZvXxEH-20" value="" style="edgeStyle=orthogonalEdgeStyle;rounded=0;orthogonalLoop=1;jettySize=auto;html=1;" edge="1" parent="1" source="DGAj23DFqnA725ZvXxEH-2" target="DGAj23DFqnA725ZvXxEH-19">
          <mxGeometry relative="1" as="geometry" />
        </mxCell>
        <mxCell id="DGAj23DFqnA725ZvXxEH-2" value="bmi &amp;gt;= 25?" style="rhombus;whiteSpace=wrap;html=1;" vertex="1" parent="1">
          <mxGeometry x="120" y="140" width="160" height="90" as="geometry" />
        </mxCell>
        <mxCell id="DGAj23DFqnA725ZvXxEH-5" value="No" style="text;html=1;align=center;verticalAlign=middle;resizable=0;points=[];autosize=1;" vertex="1" parent="1">
          <mxGeometry x="280" y="160" width="30" height="20" as="geometry" />
        </mxCell>
        <mxCell id="DGAj23DFqnA725ZvXxEH-6" value="Overweight" style="rounded=1;whiteSpace=wrap;html=1;" vertex="1" parent="1">
          <mxGeometry x="40" y="240" width="80" height="40" as="geometry" />
        </mxCell>
        <mxCell id="DGAj23DFqnA725ZvXxEH-12" style="edgeStyle=orthogonalEdgeStyle;rounded=0;orthogonalLoop=1;jettySize=auto;html=1;entryX=0.414;entryY=0;entryDx=0;entryDy=0;entryPerimeter=0;" edge="1" parent="1">
          <mxGeometry relative="1" as="geometry">
            <mxPoint x="69" y="240" as="targetPoint" />
            <Array as="points">
              <mxPoint x="69" y="185" />
            </Array>
            <mxPoint x="120" y="185" as="sourcePoint" />
          </mxGeometry>
        </mxCell>
        <mxCell id="DGAj23DFqnA725ZvXxEH-13" value="Yes" style="text;html=1;align=center;verticalAlign=middle;resizable=0;points=[];autosize=1;" vertex="1" parent="1">
          <mxGeometry x="90" y="160" width="40" height="20" as="geometry" />
        </mxCell>
        <mxCell id="DGAj23DFqnA725ZvXxEH-23" value="" style="edgeStyle=orthogonalEdgeStyle;rounded=0;orthogonalLoop=1;jettySize=auto;html=1;" edge="1" parent="1" source="DGAj23DFqnA725ZvXxEH-19" target="DGAj23DFqnA725ZvXxEH-22">
          <mxGeometry relative="1" as="geometry" />
        </mxCell>
        <mxCell id="DGAj23DFqnA725ZvXxEH-27" value="" style="edgeStyle=orthogonalEdgeStyle;rounded=0;orthogonalLoop=1;jettySize=auto;html=1;" edge="1" parent="1" source="DGAj23DFqnA725ZvXxEH-19" target="DGAj23DFqnA725ZvXxEH-26">
          <mxGeometry relative="1" as="geometry" />
        </mxCell>
        <mxCell id="DGAj23DFqnA725ZvXxEH-19" value="bmi &amp;lt; 25?" style="rhombus;whiteSpace=wrap;html=1;" vertex="1" parent="1">
          <mxGeometry x="320" y="280" width="160" height="90" as="geometry" />
        </mxCell>
        <mxCell id="DGAj23DFqnA725ZvXxEH-22" value="Normal Weight" style="rounded=1;whiteSpace=wrap;html=1;" vertex="1" parent="1">
          <mxGeometry x="195" y="380" width="85" height="40" as="geometry" />
        </mxCell>
        <mxCell id="DGAj23DFqnA725ZvXxEH-25" value="Yes" style="text;html=1;align=center;verticalAlign=middle;resizable=0;points=[];autosize=1;" vertex="1" parent="1">
          <mxGeometry x="290" y="300" width="40" height="20" as="geometry" />
        </mxCell>
        <mxCell id="DGAj23DFqnA725ZvXxEH-30" value="" style="edgeStyle=orthogonalEdgeStyle;rounded=0;orthogonalLoop=1;jettySize=auto;html=1;" edge="1" parent="1" source="DGAj23DFqnA725ZvXxEH-26" target="DGAj23DFqnA725ZvXxEH-29">
          <mxGeometry relative="1" as="geometry" />
        </mxCell>
        <mxCell id="DGAj23DFqnA725ZvXxEH-26" value="bmi &amp;lt; 18.5" style="rhombus;whiteSpace=wrap;html=1;" vertex="1" parent="1">
          <mxGeometry x="520" y="420" width="160" height="90" as="geometry" />
        </mxCell>
        <mxCell id="DGAj23DFqnA725ZvXxEH-28" value="No" style="text;html=1;align=center;verticalAlign=middle;resizable=0;points=[];autosize=1;" vertex="1" parent="1">
          <mxGeometry x="480" y="300" width="30" height="20" as="geometry" />
        </mxCell>
        <mxCell id="DGAj23DFqnA725ZvXxEH-29" value="Underweight" style="rounded=1;whiteSpace=wrap;html=1;" vertex="1" parent="1">
          <mxGeometry x="560" y="600" width="80" height="45" as="geometry" />
        </mxCell>
        <mxCell id="DGAj23DFqnA725ZvXxEH-31" value="Yes" style="text;html=1;align=center;verticalAlign=middle;resizable=0;points=[];autosize=1;" vertex="1" parent="1">
          <mxGeometry x="560" y="510" width="40" height="20" as="geometry" />
        </mxCell>
      </root>
    </mxGraphModel>
  </diagram>
</mxfile>
